HIERARCHY
ROOT Hips
{
    OFFSET 0.000000 0.000000 0.000000
    CHANNELS 6 Xposition Yposition Zposition Zrotation Xrotation Yrotation
    JOINT Spine
    {
        OFFSET -0.000000 7.246840 0.000000
        CHANNELS 3 Zrotation Xrotation Yrotation
        JOINT Spine1
        {
            OFFSET -0.000000 20.289354 0.000000
            CHANNELS 3 Zrotation Xrotation Yrotation
            JOINT Neck
            {
                OFFSET -0.000000 20.206032 1.836912
                CHANNELS 3 Zrotation Xrotation Yrotation
                JOINT Head
                {
                    OFFSET -0.000000 12.372654 -1.767522
                    CHANNELS 3 Zrotation Xrotation Yrotation
                    End Site
                    {
                        OFFSET -0.000000 22.094025 0.000000
                    }
                }
            }
            JOINT LeftShoulder
            {
                OFFSET 3.465871 17.201674 -0.568930
                CHANNELS 3 Zrotation Xrotation Yrotation
                JOINT LeftArm
                {
                    OFFSET 14.070313 0.000000 0.000000
                    CHANNELS 3 Zrotation Xrotation Yrotation
                    JOINT LeftForeArm
                    {
                        OFFSET 26.549477 0.000000 0.000000
                        CHANNELS 3 Zrotation Xrotation Yrotation
                        JOINT LeftHand
                        {
                            OFFSET 18.880413 0.000000 0.000000
                            CHANNELS 3 Zrotation Xrotation Yrotation
                            End Site
                            {
                                OFFSET 13.256415 0.000000 0.000000
                            }
                        }
                    }
                }
            }
            JOINT RightShoulder
            {
                OFFSET -3.526370 17.201674 -0.568930
                CHANNELS 3 Zrotation Xrotation Yrotation
                JOINT RightArm
                {
                    OFFSET -14.070313 0.000000 0.000000
                    CHANNELS 3 Zrotation Xrotation Yrotation
                    JOINT RightForeArm
                    {
                        OFFSET -26.549477 0.000000 0.000000
                        CHANNELS 3 Zrotation Xrotation Yrotation
                        JOINT RightHand
                        {
                            OFFSET -18.880413 0.000000 0.000000
                            CHANNELS 3 Zrotation Xrotation Yrotation
                            End Site
                            {
                                OFFSET -13.256415 0.000000 0.000000
                            }
                        }
                    }
                }
            }
        }
    }
    JOINT LeftUpLeg
    {
        OFFSET 8.837609 0.000000 0.000000
        CHANNELS 3 Zrotation Xrotation Yrotation
        JOINT LeftLeg
        {
            OFFSET -0.000000 -41.345005 0.000000
            CHANNELS 3 Zrotation Xrotation Yrotation
            JOINT LeftFoot
            {
                OFFSET -0.000000 -35.500874 0.000000
                CHANNELS 3 Zrotation Xrotation Yrotation
                JOINT LeftToeBase
                {
                    OFFSET -0.000000 -5.744446 13.256415
                    CHANNELS 3 Zrotation Xrotation Yrotation
                    End Site
                    {
                        OFFSET -0.000000 0.000000 3.535044
                    }
                }
            }
        }
    }
    JOINT RightUpLeg
    {
        OFFSET -8.837609 0.000000 0.000000
        CHANNELS 3 Zrotation Xrotation Yrotation
        JOINT RightLeg
        {
            OFFSET -0.000000 -41.345005 0.000000
            CHANNELS 3 Zrotation Xrotation Yrotation
            JOINT RightFoot
            {
                OFFSET -0.000000 -35.500874 0.000000
                CHANNELS 3 Zrotation Xrotation Yrotation
                JOINT RightToeBase
                {
                    OFFSET -0.000000 -5.744446 13.256415
                    CHANNELS 3 Zrotation Xrotation Yrotation
                    End Site
                    {
                        OFFSET -0.000000 0.000000 3.535044
                    }
                }
            }
        }
    }
}
MOTION
Frames:    14
Frame Time:    0.010000
1.894915    82.188782    -11.333641    2.990121    2.199491    -3.482306    -1.392210    -19.918802    -0.070946    -4.591366    12.645679    0.682739    0.820213    19.758190    -0.933210    4.825390    -0.409514    -0.237299    11.739387    -10.521857    2.092089    18.194683    59.006699    -105.084602    2.335585    -8.029326    -87.843170    -0.647545    -5.427837    -59.769333    -5.112134    -12.598257    25.816799    7.148295    58.360382    72.396576    -4.070407    -19.013884    109.434097    19.546059    -10.394997    18.199345    -3.166500    7.609711    1.284984    -2.104201    -9.681730    -4.033294    3.190973    0.926921    -3.284749    -0.846050    -3.062855    1.206943    -7.241991    5.729925    1.681429    8.489404    -9.738301    2.998699    -0.929842    -0.480492    -5.120024    -0.665090    -0.226150    1.195611    
1.892253    82.181343    -11.316061    2.979064    2.191608    -3.538594    -1.454952    -19.951334    -0.096797    -4.418987    12.709241    0.651834    0.706159    19.821306    -0.878147    4.827340    -0.408080    -0.183123    11.620889    -10.509155    2.122110    18.281183    59.000797    -105.116852    2.507947    -8.118202    -87.827698    -0.580714    -5.390891    -59.743305    -5.219502    -12.590051    25.779966    7.247045    58.315300    72.395714    -4.020803    -18.954357    109.392036    19.692549    -10.356759    18.348780    -3.166297    7.645696    1.300614    -2.097867    -9.698647    -4.040781    3.043262    0.839085    -3.396498    -1.094164    -2.934890    1.559609    -7.239665    5.752378    1.720150    8.496640    -9.768313    2.996147    -0.927322    -0.477028    -5.091789    -0.674583    -0.223334    1.212638    
1.890298    82.175301    -11.300658    2.970366    2.182512    -3.585079    -1.458470    -19.964834    -0.116894    -4.431279    12.737835    0.634693    0.773935    19.897099    -0.817190    4.779724    -0.427079    -0.123130    11.692702    -10.435484    2.162438    18.134766    58.991825    -105.032356    2.536197    -8.115030    -87.790375    -0.579843    -5.361927    -59.852501    -5.136092    -12.542418    25.792974    7.167734    58.264565    72.449745    -3.986388    -18.933050    109.387756    19.751509    -10.361175    18.418234    -3.165622    7.676764    1.312845    -2.090838    -9.711362    -4.053535    3.074196    0.827827    -3.339383    -1.092111    -2.910733    1.556447    -7.236198    5.770276    1.750513    8.501879    -9.781778    2.989506    -0.916155    -0.484394    -5.058626    -0.658503    -0.210643    1.183571    
1.887793    82.168678    -11.285910    2.965934    2.171468    -3.626503    -1.469341    -19.980482    -0.138973    -4.402855    12.791374    0.613948    0.797718    19.930237    -0.758943    4.710815    -0.452252    -0.070448    11.689059    -10.475011    2.173628    18.024609    59.077831    -104.924110    2.599748    -8.089447    -87.790924    -0.528295    -5.304595    -59.893116    -5.106657    -12.530475    25.812727    7.152428    58.191360    72.469299    -3.922013    -18.830042    109.267990    19.907251    -10.236939    18.944170    -3.170600    7.704742    1.325337    -2.073566    -9.722431    -4.026256    3.067462    0.817729    -3.333548    -1.090068    -2.926080    1.553685    -7.241940    5.788306    1.798998    8.520203    -9.794086    2.994433    -0.927277    -0.492587    -5.079700    -0.676313    -0.213236    1.215614    
1.885644    82.165131    -11.275403    2.966171    2.171387    -3.658134    -1.509208    -19.986368    -0.164165    -4.333568    12.822177    0.589152    0.809434    19.966339    -0.731259    4.653711    -0.522787    -0.046519    11.662323    -10.466017    2.186961    18.019524    59.092617    -104.907028    2.707325    -8.108765    -87.757385    -0.454779    -5.264320    -59.929600    -5.089338    -12.503263    25.825247    7.027577    58.095638    72.560959    -3.765569    -18.790047    109.291176    19.925951    -10.395979    19.008043    -3.173989    7.714772    1.339052    -2.071814    -9.716248    -4.061471    3.075742    0.805382    -3.281389    -1.096807    -2.924938    1.563279    -7.249466    5.789437    1.836171    8.525754    -9.796768    2.998611    -0.922989    -0.490831    -5.088544    -0.688711    -0.193702    1.237636    
1.883444    82.162453    -11.266296    2.963926    2.170335    -3.688236    -1.523896    -19.991777    -0.179095    -4.305672    12.868838    0.576105    0.809963    19.949898    -0.676018    4.653538    -0.569231    0.012695    11.656590    -10.491872    2.178596    17.921400    59.136444    -104.801231    2.775520    -8.088840    -87.750343    -0.393571    -5.214239    -59.957531    -5.054934    -12.505031    25.839659    6.872090    57.988060    72.673897    -3.757830    -18.727242    109.267189    19.849091    -10.346303    19.067820    -3.177936    7.727744    1.328526    -2.069010    -9.724495    -3.982006    3.085287    0.796401    -3.311539    -1.093097    -2.943187    1.558171    -7.252689    5.787358    1.860344    8.527479    -9.790678    3.006247    -0.922016    -0.494129    -5.077492    -0.670516    -0.224279    1.205339    
1.883776    82.163025    -11.259590    2.968217    2.178652    -3.713451    -6.404879    -20.784069    2.282424    1.199649    14.210020    3.308690    9.688593    18.565157    -4.893103    -1.459746    -0.860992    -5.097766    14.256022    -11.534690    -6.133782    7.773232    59.392735    -101.222244    2.813880    -7.034535    -83.031914    -0.814096    -4.073591    -61.622646    -6.191924    -13.086891    17.101490    4.567004    59.737530    72.067543    -3.584727    -18.707138    112.285080    19.627909    -10.238379    19.505333    -3.192186    7.722664    1.362016    -2.050663    -9.727426    -4.037417    3.091734    0.796272    -3.253153    -1.082230    -2.928927    1.542543    -7.268144    5.773631    1.910202    8.545101    -9.783202    3.006124    -0.925470    -0.502396    -5.104362    -0.686423    -0.208517    1.233723    
1.881641    82.164093    -11.254189    2.965082    2.185369    -3.735001    -6.436237    -20.754398    2.268073    1.255140    14.196867    3.291614    9.719488    18.572639    -4.843449    -1.524081    -0.984666    -5.055947    14.264639    -11.533335    -6.152205    7.750998    59.373604    -101.200302    2.878036    -7.048584    -83.015633    -0.741654    -4.075028    -61.609768    -6.177652    -13.110404    17.134653    4.289581    59.666142    72.249542    -3.564380    -18.714842    112.299202    19.514475    -10.293968    19.509264    -3.194893    7.717747    1.385313    -2.060188    -9.711497    -3.955836    3.096462    0.783341    -3.346627    -1.101693    -2.969999    1.570691    -7.266015    5.758964    1.932971    8.537799    -9.770476    3.015895    -0.894510    -0.511107    -5.108495    -0.669599    -0.198230    1.203352    
1.880833    82.166412    -11.250798    2.961533    2.202755    -3.757293    -6.417219    -20.727734    2.259172    1.248300    14.165214    3.278883    9.726731    18.615963    -4.787380    -1.543613    -1.154396    -4.998557    14.249895    -11.494641    -6.156769    7.809200    59.283016    -101.203178    2.933921    -7.061869    -83.008011    -0.639390    -4.100556    -61.551949    -6.145142    -13.088688    17.200443    3.874846    59.534290    72.545273    -3.558550    -18.790012    112.294975    19.381281    -10.404048    19.511007    -3.192422    7.703155    1.389773    -2.036402    -9.714655    -4.036593    3.241266    0.861524    -3.078416    -0.859266    -3.106504    1.226136    -7.268917    5.735321    1.968392    8.548847    -9.764402    3.006157    -0.924160    -0.501413    -5.118799    -0.691595    -0.209214    1.243026    
1.878590    82.170525    -11.249318    2.956653    2.222944    -3.768468    -6.432178    -20.689999    2.246419    1.281727    14.109559    3.263148    9.741373    18.664267    -4.745302    -1.565544    -1.320538    -4.955454    14.240806    -11.474286    -6.202508    7.715726    59.210381    -101.065918    3.039230    -7.004683    -82.993011    -0.444613    -4.067230    -61.388462    -6.101000    -13.049177    17.247023    3.471353    59.326408    72.782310    -3.500333    -18.835773    112.387314    19.238644    -10.562309    19.456686    -3.194804    7.678070    1.415485    -2.019983    -9.692807    -4.075097    3.078034    0.753055    -3.208021    -1.102774    -2.925181    1.571785    -7.263427    5.709808    1.980714    8.548397    -9.755557    3.013334    -0.903030    -0.504116    -5.117278    -0.683180    -0.179770    1.227512    
1.878202    82.174408    -11.247913    2.948832    2.243382    -3.779905    -6.431129    -20.647188    2.229910    1.304642    14.042254    3.241905    9.758387    18.738283    -4.695786    -1.601750    -1.516928    -4.904801    14.217748    -11.450396    -6.239037    7.770117    59.108387    -101.051643    3.075637    -7.000765    -83.003639    -0.298511    -4.117507    -61.255913    -6.045526    -12.985414    17.313820    3.156736    58.978836    72.870583    -3.335175    -18.671474    112.493454    18.975760    -10.674199    19.434622    -3.192237    7.659020    1.411402    -2.034660    -9.687704    -3.952769    3.246422    0.835855    -3.146955    -0.847958    -3.124882    1.210142    -7.254274    5.684613    1.989231    8.543491    -9.748706    3.015422    -0.911057    -0.504621    -5.103936    -0.666305    -0.210665    1.197594    
1.877074    82.178482    -11.248614    2.950856    2.264795    -3.780229    -6.452950    -20.599436    2.198699    1.383659    13.968862    3.203088    9.661952    18.825878    -4.638731    -1.572887    -1.719883    -4.837788    14.100245    -11.422844    -6.301033    6.824666    59.093384    -99.950020    2.746117    -6.442531    -83.107910    -0.140390    -3.936661    -61.388870    -6.025280    -12.986970    17.399166    2.511348    58.690830    73.288864    -3.244804    -18.716133    112.511757    18.703802    -10.897879    19.441263    -3.194001    7.634993    1.406359    -2.020631    -9.684031    -3.953784    3.076660    0.749026    -3.292869    -1.087151    -2.976491    1.550023    -7.254415    5.658770    1.976698    8.547875    -9.739715    2.995712    -0.906221    -0.498493    -5.083933    -0.689378    -0.211672    1.239075    
1.878007    82.181030    -11.248434    2.948560    2.286433    -3.783349    -6.462829    -20.526068    2.168293    1.444354    13.834252    3.164469    9.629198    18.955729    -4.601684    -1.616750    -1.922536    -4.797667    14.011384    -11.402967    -6.383222    7.894197    58.981632    -100.783432    3.074317    -7.150847    -82.950668    -0.254650    -4.297248    -61.464493    -5.989336    -12.999500    17.506672    1.915766    58.425491    73.574631    -3.137600    -18.761932    112.568275    18.437523    -11.133698    19.505295    -3.197951    7.612674    1.452866    -2.005747    -9.689405    -4.007047    3.038672    0.752516    -3.277919    -1.088468    -2.975650    1.551891    -7.252629    5.638319    1.964046    8.543093    -9.739227    3.006933    -0.893799    -0.493415    -5.078366    -0.683585    -0.222249    1.228805    
1.880623    82.183281    -11.248657    2.953447    2.305231    -3.773324    -6.490761    -20.429424    2.132153    1.516580    13.653909    3.121404    9.574027    19.104860    -4.552691    -1.616611    -2.091459    -4.736676    13.907388    -11.420262    -6.521682    7.737977    58.981247    -100.472275    3.037842    -7.227000    -82.910706    -0.301636    -4.379648    -61.560917    -5.955105    -13.035324    17.623009    1.473691    58.112999    73.760605    -2.934656    -18.857023    112.939926    18.086285    -11.679861    18.767437    -3.209660    7.594447    1.459393    -2.006203    -9.683608    -3.976488    3.217108    0.824882    -3.158667    -0.837810    -3.116189    1.195594    -7.258264    5.623122    1.928193    8.554936    -9.744828    2.985303    -0.891749    -0.487787    -5.030793    -0.684536    -0.208596    1.230332    
